<svg xmlns="http://www.w3.org/2000/svg" width="82.68" height="16.14" viewBox="0 0 82.68 16.14">
  <g id="Group_3" data-name="Group 3" transform="translate(-161.88 -196.62)">
    <path id="Path_3" data-name="Path 3" d="M4.64-2.04c0,.48-.12.58-.6.58h-.7c-.46,0-.66-.18-.66-.7V-7.62c0-.52.2-.7.66-.7h.7c.48,0,.6.12.6.58ZM3.92-9.78A1.163,1.163,0,0,0,2.68-9v-4.38H.88V0h1.8V-.78A1.163,1.163,0,0,0,3.92,0h.7A1.585,1.585,0,0,0,6.44-1.76V-8A1.591,1.591,0,0,0,4.62-9.78Zm7.9.02v7.6c0,.52-.2.7-.66.7h-.7c-.48,0-.6-.1-.6-.58V-9.76H8.06v8A1.571,1.571,0,0,0,9.86,0h.72a1.163,1.163,0,0,0,1.24-.78V0h1.8V-9.76Zm5.84,8.3c-.48,0-.6-.1-.6-.58v-5.7c0-.46.12-.58.6-.58h.7c.46,0,.66.18.66.7v5.46c0,.52-.2.7-.66.7Zm1.36-11.92V-9a1.163,1.163,0,0,0-1.24-.78h-.72A1.577,1.577,0,0,0,15.26-8v6.24A1.571,1.571,0,0,0,17.06,0h.72a1.163,1.163,0,0,0,1.24-.78V0h1.8V-13.38Zm5.84,11.8c-.48,0-.6-.12-.6-.58V-7.72c0-.48.12-.58.6-.58h.7c.46,0,.66.18.66.7v5.32c0,.52-.2.7-.66.7Zm1.36-8.18v.78a1.163,1.163,0,0,0-1.24-.78h-.72a1.577,1.577,0,0,0-1.8,1.78V-1.9a1.577,1.577,0,0,0,1.8,1.78h.72A1.163,1.163,0,0,0,26.22-.9V.76c0,.46-.12.58-.6.58H22.8V2.76h3.34c1.3,0,1.88-.6,1.88-1.76V-9.76ZM31.5-5.64V-7.76c0-.46.12-.58.6-.58h.98c.48,0,.58.12.58.58v2.12Zm.1-4.12c-1.28,0-1.86.62-1.86,1.78v6.22C29.74-.62,30.32,0,31.6,0h1.92c1.28,0,1.86-.62,1.86-1.76V-2.82H33.62v.8c0,.48-.12.6-.6.6H32.1c-.48,0-.6-.12-.6-.58V-4.32h3.94V-7.98c0-1.16-.58-1.78-1.88-1.78ZM40.28-8.3V-9.76H38.94v-1.66H37.12v1.66H36.2V-8.3h.92v6.54C37.12-.62,37.7,0,39,0h1.28V-1.54h-.76c-.48,0-.58-.1-.58-.58V-8.3Z" transform="translate(161 210)" fill="#f7cc19"/>
    <path id="Path_4" data-name="Path 4" d="M4.68-8.06V-9.82H3.34v-1.76H1.08v1.76H.1v1.76h.98v6.08C1.08-.72,1.72,0,3.26,0h1.4V-1.82H3.92c-.44,0-.58-.12-.58-.54v-5.7Zm5.06-1.8a1.737,1.737,0,0,0-1.76,1.3V-9.82H5.74V0H8V-6.46Q8-7.9,9.26-7.9h.84V-9.86Zm4,8.1c-.44,0-.56-.12-.56-.54V-7.52c0-.42.12-.54.56-.54h.6c.44,0,.62.18.62.66v4.98c0,.48-.18.66-.62.66ZM15-9.82v.96a1.29,1.29,0,0,0-1.42-.96h-.62a1.777,1.777,0,0,0-2.04,1.98v5.86A1.777,1.777,0,0,0,12.96,0h.62a1.313,1.313,0,0,0,1.38-.84V0h2.28V-9.82Zm10.12,3.3V-7.84c0-1.26-.64-1.98-2.18-1.98H20.98c-1.54,0-2.18.72-2.18,1.98v5.86C18.8-.72,19.44,0,20.98,0h1.96c1.54,0,2.18-.72,2.18-1.98V-3.32H22.9V-2.3c0,.42-.12.54-.56.54h-.72c-.44,0-.56-.12-.56-.54V-7.52c0-.42.12-.54.56-.54h.72c.44,0,.56.12.56.54v1ZM26.54,0H28.8V-13.38H26.54Zm6.94-9.82H31.12L28.98-5.1,31.1,0h2.38l-2.2-5.1Zm2.98,4.1V-7.6c0-.42.12-.54.56-.54h.96c.44,0,.56.12.56.54v1.88Zm-.02-4.1c-1.52,0-2.18.72-2.18,1.98v5.86c0,1.26.66,1.98,2.18,1.98h2.08c1.54,0,2.18-.72,2.18-1.98v-1H38.5v.74c0,.42-.12.54-.56.54h-.92c-.44,0-.56-.1-.56-.54V-4.26h4.26V-7.84c0-1.26-.64-1.98-2.16-1.98Zm9.76-.04a1.737,1.737,0,0,0-1.76,1.3V-9.82H42.2V0h2.26V-6.46q0-1.44,1.26-1.44h.84V-9.86Z" transform="translate(198 210)" fill="#222"/>
  </g>
</svg>
